<?xml version="1.0" encoding="UTF-8" standalone="no"?>
<!-- Created with Inkscape (http://www.inkscape.org/) -->

<svg
   xmlns:dc="http://purl.org/dc/elements/1.1/"
   xmlns:cc="http://creativecommons.org/ns#"
   xmlns:rdf="http://www.w3.org/1999/02/22-rdf-syntax-ns#"
   xmlns:svg="http://www.w3.org/2000/svg"
   xmlns="http://www.w3.org/2000/svg"
   xmlns:sodipodi="http://sodipodi.sourceforge.net/DTD/sodipodi-0.dtd"
   xmlns:inkscape="http://www.inkscape.org/namespaces/inkscape"
   id="svg5000"
   version="1.1"
   inkscape:version="0.91 r13725"
   xml:space="preserve"
   width="522.39551"
   height="497.8783"
   viewBox="0 0 522.39551 497.8783"
   sodipodi:docname="analyzed_rtq_t2k_nu_t2kReconDir_hist.svg"><metadata
     id="metadata5006"><rdf:RDF><cc:Work
         rdf:about=""><dc:format>image/svg+xml</dc:format><dc:type
           rdf:resource="http://purl.org/dc/dcmitype/StillImage" /><dc:title></dc:title></cc:Work></rdf:RDF></metadata><defs
     id="defs5004" /><sodipodi:namedview
     pagecolor="#ffffff"
     bordercolor="#666666"
     borderopacity="1"
     objecttolerance="10"
     gridtolerance="10"
     guidetolerance="10"
     inkscape:pageopacity="0"
     inkscape:pageshadow="2"
     inkscape:window-width="1918"
     inkscape:window-height="1161"
     id="namedview5002"
     showgrid="false"
     fit-margin-top="0"
     fit-margin-left="0"
     fit-margin-right="0"
     fit-margin-bottom="0"
     inkscape:zoom="1.4323529"
     inkscape:cx="301.38637"
     inkscape:cy="291.36933"
     inkscape:window-x="0"
     inkscape:window-y="20"
     inkscape:window-maximized="1"
     inkscape:current-layer="g5008" /><g
     id="g5008"
     inkscape:groupmode="layer"
     inkscape:label="ink_ext_XXXXXX"
     transform="matrix(1.25,0,0,-1.25,-52.98863,546.50896)"><path
       inkscape:connector-curvature="0"
       id="path5014"
       style="fill:#ffffff;fill-opacity:1;fill-rule:evenodd;stroke:none"
       d="m 113.5,108.75 340,0 0,326.5 -340,0 0,-326.5 z" /><path
       inkscape:connector-curvature="0"
       id="path5016"
       style="fill:#ffffff;fill-opacity:1;fill-rule:evenodd;stroke:none"
       d="m 113.5,108.75 1,1 0,324.5 338,0 1,1 -340,0 0,-326.5" /><path
       inkscape:connector-curvature="0"
       id="path5018"
       style="fill:#ffffff;fill-opacity:1;fill-rule:evenodd;stroke:none"
       d="m 113.5,108.75 1,1 338,0 0,324.5 1,1 0,-326.5 -340,0" /><path
       inkscape:connector-curvature="0"
       id="path5020"
       style="fill:none;stroke:#000000;stroke-width:2.25;stroke-linecap:butt;stroke-linejoin:miter;stroke-miterlimit:10;stroke-dasharray:none;stroke-opacity:1"
       d="m 113.5,108.75 340,0 0,326.5 -340,0 0,-326.5 z" /><path
       inkscape:connector-curvature="0"
       id="path5022"
       style="fill:#ffffff;fill-opacity:1;fill-rule:evenodd;stroke:none"
       d="m 113.5,108.75 340,0 0,326.5 -340,0 0,-326.5 z" /><path
       inkscape:connector-curvature="0"
       id="path5024"
       style="fill:#ffffff;fill-opacity:1;fill-rule:evenodd;stroke:none"
       d="m 113.5,108.75 1,1 0,324.5 338,0 1,1 -340,0 0,-326.5" /><path
       inkscape:connector-curvature="0"
       id="path5026"
       style="fill:#ffffff;fill-opacity:1;fill-rule:evenodd;stroke:none"
       d="m 113.5,108.75 1,1 338,0 0,324.5 1,1 0,-326.5 -340,0" /><path
       inkscape:connector-curvature="0"
       id="path5028"
       style="fill:none;stroke:#000000;stroke-width:2.25;stroke-linecap:butt;stroke-linejoin:miter;stroke-miterlimit:10;stroke-dasharray:none;stroke-opacity:1"
       d="m 113.5,108.75 340,0 0,326.5 -340,0 0,-326.5 z" /><path
       inkscape:connector-curvature="0"
       id="path5030"
       style="fill:none;stroke:#0000ff;stroke-width:2.25;stroke-linecap:butt;stroke-linejoin:miter;stroke-miterlimit:10;stroke-dasharray:none;stroke-opacity:1"
       d="m 114.25,109.75 0,76.75 33.25,0 0,77.75 34,0 0,77.75 34,0 0,-232.25 102,0 0,310 68,0 0,-310 68,0" /><path
       inkscape:connector-curvature="0"
       id="path5032"
       style="fill:none;stroke:#000000;stroke-width:2.25;stroke-linecap:butt;stroke-linejoin:miter;stroke-miterlimit:10;stroke-dasharray:none;stroke-opacity:1"
       d="m 113.5,108.75 340,0" /><g
       id="g5034"><text
         id="text5036"
         style="font-variant:normal;font-weight:bold;font-size:18.07320023px;font-family:Helvetica;-inkscape-font-specification:Helvetica-Bold;writing-mode:lr-tb;fill:#000000;fill-opacity:1;fill-rule:nonzero;stroke:none"
         transform="matrix(1,0,0,-1,243.513,42.8051)"><tspan
           id="tspan5038"
           sodipodi:role="line"
           y="0"
           x="0 12.999973 23.74995 33.74992 39.499912 49.499882 60.249859 71.249832 75.999817 85.999786 90.999771 96.749763 103.74975 114.49973 130.49968 135.24966 145.24963 151.24963 161.7496 174.49957 187.49954 200.24953">Cos(angle from J-PARC)</tspan></text>
</g><path
       inkscape:connector-curvature="0"
       id="path5040"
       style="fill:none;stroke:#000000;stroke-width:2.25;stroke-linecap:butt;stroke-linejoin:miter;stroke-miterlimit:10;stroke-dasharray:none;stroke-opacity:1"
       d="m 113.5,118.5 0,-9.75" /><path
       inkscape:connector-curvature="0"
       id="path5042"
       style="fill:none;stroke:#000000;stroke-width:2.25;stroke-linecap:butt;stroke-linejoin:miter;stroke-miterlimit:10;stroke-dasharray:none;stroke-opacity:1"
       d="m 198.5,118.5 0,-9.75" /><path
       inkscape:connector-curvature="0"
       id="path5044"
       style="fill:none;stroke:#000000;stroke-width:2.25;stroke-linecap:butt;stroke-linejoin:miter;stroke-miterlimit:10;stroke-dasharray:none;stroke-opacity:1"
       d="m 283.5,118.5 0,-9.75" /><path
       inkscape:connector-curvature="0"
       id="path5046"
       style="fill:none;stroke:#000000;stroke-width:2.25;stroke-linecap:butt;stroke-linejoin:miter;stroke-miterlimit:10;stroke-dasharray:none;stroke-opacity:1"
       d="m 368.5,118.5 0,-9.75" /><path
       inkscape:connector-curvature="0"
       id="path5048"
       style="fill:none;stroke:#000000;stroke-width:2.25;stroke-linecap:butt;stroke-linejoin:miter;stroke-miterlimit:10;stroke-dasharray:none;stroke-opacity:1"
       d="m 453.5,118.5 0,-9.75" /><g
       id="g5050"><text
         id="text5052"
         style="font-variant:normal;font-weight:bold;font-size:18.07320023px;font-family:Helvetica;-inkscape-font-specification:Helvetica-Bold;writing-mode:lr-tb;fill:#000000;fill-opacity:1;fill-rule:nonzero;stroke:none"
         transform="matrix(1,0,0,-1,106.537,91.3176)"><tspan
           id="tspan5054"
           sodipodi:role="line"
           y="0"
           x="0 6.0183754 75.146194 81.164574 91.213272 96.237617 172.16982 249.21967 259.26837 264.29272 342.43924">-1-0.500.51</tspan></text>
</g><path
       inkscape:connector-curvature="0"
       id="path5056"
       style="fill:none;stroke:#000000;stroke-width:2.25;stroke-linecap:butt;stroke-linejoin:miter;stroke-miterlimit:10;stroke-dasharray:none;stroke-opacity:1"
       d="m 113.5,435.25 340,0" /><path
       inkscape:connector-curvature="0"
       id="path5058"
       style="fill:none;stroke:#000000;stroke-width:2.25;stroke-linecap:butt;stroke-linejoin:miter;stroke-miterlimit:10;stroke-dasharray:none;stroke-opacity:1"
       d="m 113.5,425.5 0,9.75" /><path
       inkscape:connector-curvature="0"
       id="path5060"
       style="fill:none;stroke:#000000;stroke-width:2.25;stroke-linecap:butt;stroke-linejoin:miter;stroke-miterlimit:10;stroke-dasharray:none;stroke-opacity:1"
       d="m 198.5,425.5 0,9.75" /><path
       inkscape:connector-curvature="0"
       id="path5062"
       style="fill:none;stroke:#000000;stroke-width:2.25;stroke-linecap:butt;stroke-linejoin:miter;stroke-miterlimit:10;stroke-dasharray:none;stroke-opacity:1"
       d="m 283.5,425.5 0,9.75" /><path
       inkscape:connector-curvature="0"
       id="path5064"
       style="fill:none;stroke:#000000;stroke-width:2.25;stroke-linecap:butt;stroke-linejoin:miter;stroke-miterlimit:10;stroke-dasharray:none;stroke-opacity:1"
       d="m 368.5,425.5 0,9.75" /><path
       inkscape:connector-curvature="0"
       id="path5066"
       style="fill:none;stroke:#000000;stroke-width:2.25;stroke-linecap:butt;stroke-linejoin:miter;stroke-miterlimit:10;stroke-dasharray:none;stroke-opacity:1"
       d="m 453.5,425.5 0,9.75" /><path
       inkscape:connector-curvature="0"
       id="path5068"
       style="fill:none;stroke:#000000;stroke-width:2.25;stroke-linecap:butt;stroke-linejoin:miter;stroke-miterlimit:10;stroke-dasharray:none;stroke-opacity:1"
       d="m 113.5,108.75 0,326.5" /><g
       id="g5070"><text
         id="text5072"
         style="font-variant:normal;font-weight:bold;font-size:18.07320023px;font-family:Helvetica;-inkscape-font-specification:Helvetica-Bold;writing-mode:lr-tb;fill:#000000;fill-opacity:1;fill-rule:nonzero;stroke:none"
         transform="matrix(0,1,1,0,56.1223,343.393)"><tspan
           id="tspan5074"
           sodipodi:role="line"
           y="0"
           x="0 12.054825 23.097549 29.115925 36.1464 41.17075 51.219448 61.268147 66.292496 77.33522 82.359573">Entries/bin</tspan></text>
</g><path
       inkscape:connector-curvature="0"
       id="path5076"
       style="fill:none;stroke:#000000;stroke-width:2.25;stroke-linecap:butt;stroke-linejoin:miter;stroke-miterlimit:10;stroke-dasharray:none;stroke-opacity:1"
       d="m 123.5,108.75 -10,0" /><path
       inkscape:connector-curvature="0"
       id="path5078"
       style="fill:none;stroke:#000000;stroke-width:2.25;stroke-linecap:butt;stroke-linejoin:miter;stroke-miterlimit:10;stroke-dasharray:none;stroke-opacity:1"
       d="m 118.5,147.75 -5,0" /><path
       inkscape:connector-curvature="0"
       id="path5080"
       style="fill:none;stroke:#000000;stroke-width:2.25;stroke-linecap:butt;stroke-linejoin:miter;stroke-miterlimit:10;stroke-dasharray:none;stroke-opacity:1"
       d="m 123.5,186.5 -10,0" /><path
       inkscape:connector-curvature="0"
       id="path5082"
       style="fill:none;stroke:#000000;stroke-width:2.25;stroke-linecap:butt;stroke-linejoin:miter;stroke-miterlimit:10;stroke-dasharray:none;stroke-opacity:1"
       d="m 118.5,225.5 -5,0" /><path
       inkscape:connector-curvature="0"
       id="path5084"
       style="fill:none;stroke:#000000;stroke-width:2.25;stroke-linecap:butt;stroke-linejoin:miter;stroke-miterlimit:10;stroke-dasharray:none;stroke-opacity:1"
       d="m 123.5,264.25 -10,0" /><path
       inkscape:connector-curvature="0"
       id="path5086"
       style="fill:none;stroke:#000000;stroke-width:2.25;stroke-linecap:butt;stroke-linejoin:miter;stroke-miterlimit:10;stroke-dasharray:none;stroke-opacity:1"
       d="m 118.5,303.25 -5,0" /><path
       inkscape:connector-curvature="0"
       id="path5088"
       style="fill:none;stroke:#000000;stroke-width:2.25;stroke-linecap:butt;stroke-linejoin:miter;stroke-miterlimit:10;stroke-dasharray:none;stroke-opacity:1"
       d="m 123.5,342 -10,0" /><path
       inkscape:connector-curvature="0"
       id="path5090"
       style="fill:none;stroke:#000000;stroke-width:2.25;stroke-linecap:butt;stroke-linejoin:miter;stroke-miterlimit:10;stroke-dasharray:none;stroke-opacity:1"
       d="m 118.5,380.75 -5,0" /><path
       inkscape:connector-curvature="0"
       id="path5092"
       style="fill:none;stroke:#000000;stroke-width:2.25;stroke-linecap:butt;stroke-linejoin:miter;stroke-miterlimit:10;stroke-dasharray:none;stroke-opacity:1"
       d="m 123.5,419.75 -10,0" /><path
       inkscape:connector-curvature="0"
       id="path5094"
       style="fill:none;stroke:#000000;stroke-width:2.25;stroke-linecap:butt;stroke-linejoin:miter;stroke-miterlimit:10;stroke-dasharray:none;stroke-opacity:1"
       d="m 123.5,419.75 -10,0" /><g
       id="g5096"><text
         id="text5098"
         style="font-variant:normal;font-weight:bold;font-size:18.07320023px;font-family:Helvetica;-inkscape-font-specification:Helvetica-Bold;writing-mode:lr-tb;fill:#000000;fill-opacity:1;fill-rule:nonzero;stroke:none"
         transform="matrix(1,0,0,-1,97.9762,102.732)"><tspan
           id="tspan5100"
           y="0"
           x="0">0</tspan><tspan
           id="tspan5102"
           y="-77.048798"
           x="1.9023401">1</tspan><tspan
           id="tspan5104"
           y="-154.0976"
           x="0">2</tspan><tspan
           id="tspan5106"
           y="-233.0499"
           x="0">3</tspan><tspan
           id="tspan5108"
           y="-310.0976"
           x="-0.95156199">4</tspan></text>
</g><path
       inkscape:connector-curvature="0"
       id="path5110"
       style="fill:none;stroke:#000000;stroke-width:2.25;stroke-linecap:butt;stroke-linejoin:miter;stroke-miterlimit:10;stroke-dasharray:none;stroke-opacity:1"
       d="m 453.5,108.75 0,326.5" /><path
       inkscape:connector-curvature="0"
       id="path5112"
       style="fill:none;stroke:#000000;stroke-width:2.25;stroke-linecap:butt;stroke-linejoin:miter;stroke-miterlimit:10;stroke-dasharray:none;stroke-opacity:1"
       d="m 443.25,108.75 10.25,0" /><path
       inkscape:connector-curvature="0"
       id="path5114"
       style="fill:none;stroke:#000000;stroke-width:2.25;stroke-linecap:butt;stroke-linejoin:miter;stroke-miterlimit:10;stroke-dasharray:none;stroke-opacity:1"
       d="m 448.5,147.75 5,0" /><path
       inkscape:connector-curvature="0"
       id="path5116"
       style="fill:none;stroke:#000000;stroke-width:2.25;stroke-linecap:butt;stroke-linejoin:miter;stroke-miterlimit:10;stroke-dasharray:none;stroke-opacity:1"
       d="m 443.25,186.5 10.25,0" /><path
       inkscape:connector-curvature="0"
       id="path5118"
       style="fill:none;stroke:#000000;stroke-width:2.25;stroke-linecap:butt;stroke-linejoin:miter;stroke-miterlimit:10;stroke-dasharray:none;stroke-opacity:1"
       d="m 448.5,225.5 5,0" /><path
       inkscape:connector-curvature="0"
       id="path5120"
       style="fill:none;stroke:#000000;stroke-width:2.25;stroke-linecap:butt;stroke-linejoin:miter;stroke-miterlimit:10;stroke-dasharray:none;stroke-opacity:1"
       d="m 443.25,264.25 10.25,0" /><path
       inkscape:connector-curvature="0"
       id="path5122"
       style="fill:none;stroke:#000000;stroke-width:2.25;stroke-linecap:butt;stroke-linejoin:miter;stroke-miterlimit:10;stroke-dasharray:none;stroke-opacity:1"
       d="m 448.5,303.25 5,0" /><path
       inkscape:connector-curvature="0"
       id="path5124"
       style="fill:none;stroke:#000000;stroke-width:2.25;stroke-linecap:butt;stroke-linejoin:miter;stroke-miterlimit:10;stroke-dasharray:none;stroke-opacity:1"
       d="m 443.25,342 10.25,0" /><path
       inkscape:connector-curvature="0"
       id="path5126"
       style="fill:none;stroke:#000000;stroke-width:2.25;stroke-linecap:butt;stroke-linejoin:miter;stroke-miterlimit:10;stroke-dasharray:none;stroke-opacity:1"
       d="m 448.5,380.75 5,0" /><path
       inkscape:connector-curvature="0"
       id="path5128"
       style="fill:none;stroke:#000000;stroke-width:2.25;stroke-linecap:butt;stroke-linejoin:miter;stroke-miterlimit:10;stroke-dasharray:none;stroke-opacity:1"
       d="m 443.25,419.75 10.25,0" /><path
       inkscape:connector-curvature="0"
       id="path5130"
       style="fill:none;stroke:#000000;stroke-width:2.25;stroke-linecap:butt;stroke-linejoin:miter;stroke-miterlimit:10;stroke-dasharray:none;stroke-opacity:1"
       d="m 443.25,419.75 10.25,0" /><path
       inkscape:connector-curvature="0"
       id="path5132"
       style="fill:none;stroke:#ff0000;stroke-width:2.25;stroke-linecap:butt;stroke-linejoin:miter;stroke-miterlimit:10;stroke-dasharray:none;stroke-opacity:1"
       d="m 114.25,109.75 33.25,0 0,154.5 34,0 0,-154.5 34,0 0,76.75 102,0 0,77.75 34,0 0,-77.75 34,0 0,77.75 34,0 0,155.5 34,0" /><path
       inkscape:connector-curvature="0"
       id="path5134"
       style="fill:none;stroke:#ff0000;stroke-width:2.25;stroke-linecap:butt;stroke-linejoin:miter;stroke-miterlimit:10;stroke-dasharray:1, 2;stroke-dashoffset:0;stroke-opacity:1"
       d="m 114.25,109.75 0,33 33.25,0 0,2.5 34,0 0,11.5 34,0 0,16 34,0 0,13.25 34,0 0,16.75 34,0 0,28.75 34,0 0,36.5 34,0 0,62.75 34,0 0,8.5 34,0" /><path
       inkscape:connector-curvature="0"
       id="path5136"
       style="fill:#ffffff;fill-opacity:1;fill-rule:evenodd;stroke:none"
       d="m 124.75,370 113.25,0 0,54.5 -113.25,0 0,-54.5 z" /><path
       inkscape:connector-curvature="0"
       id="path5138"
       style="fill:none;stroke:#000000;stroke-width:2.25;stroke-linecap:butt;stroke-linejoin:miter;stroke-miterlimit:10;stroke-dasharray:none;stroke-opacity:1"
       d="M 124.75,370 238,370" /><path
       inkscape:connector-curvature="0"
       id="path5140"
       style="fill:none;stroke:#000000;stroke-width:2.25;stroke-linecap:butt;stroke-linejoin:miter;stroke-miterlimit:10;stroke-dasharray:none;stroke-opacity:1"
       d="m 238,370 0,54.5" /><path
       inkscape:connector-curvature="0"
       id="path5142"
       style="fill:none;stroke:#000000;stroke-width:2.25;stroke-linecap:butt;stroke-linejoin:miter;stroke-miterlimit:10;stroke-dasharray:none;stroke-opacity:1"
       d="m 238,424.5 -113.25,0" /><path
       inkscape:connector-curvature="0"
       id="path5144"
       style="fill:none;stroke:#000000;stroke-width:2.25;stroke-linecap:butt;stroke-linejoin:miter;stroke-miterlimit:10;stroke-dasharray:none;stroke-opacity:1"
       d="m 124.75,424.5 0,-54.5" /><g
       id="g5146"><text
         id="text5148"
         style="font-variant:normal;font-weight:bold;font-size:8.56099987px;font-family:Helvetica;-inkscape-font-specification:Helvetica-Bold;writing-mode:lr-tb;fill:#000000;fill-opacity:1;fill-rule:nonzero;stroke:none"
         transform="matrix(1,0,0,-1,152.196,411.88)"><tspan
           id="tspan5150"
           sodipodi:role="line"
           y="0"
           x="0 5.2307711 10.461542 12.8415 17.601416 19.981375 25.212145 27.592102 30.442917 33.293728 38.053646">This Fitter</tspan></text>
</g><path
       inkscape:connector-curvature="0"
       id="path5152"
       style="fill:none;stroke:#ff0000;stroke-width:2.25;stroke-linecap:butt;stroke-linejoin:miter;stroke-miterlimit:10;stroke-dasharray:none;stroke-opacity:1"
       d="m 129,415.25 19.75,0" /><g
       id="g5154"><text
         id="text5156"
         style="font-variant:normal;font-weight:bold;font-size:8.56099987px;font-family:Helvetica;-inkscape-font-specification:Helvetica-Bold;writing-mode:lr-tb;fill:#000000;fill-opacity:1;fill-rule:nonzero;stroke:none"
         transform="matrix(1,0,0,-1,152.196,393.807)"><tspan
           id="tspan5158"
           sodipodi:role="line"
           y="0"
           x="0 7.1313128 12.362084 17.592855 22.823626 25.203585 30.434355 32.814312 35.665127 38.515938 43.275856">Muon Fitter</tspan></text>
</g><path
       inkscape:connector-curvature="0"
       id="path5160"
       style="fill:none;stroke:#0000ff;stroke-width:2.25;stroke-linecap:butt;stroke-linejoin:miter;stroke-miterlimit:10;stroke-dasharray:none;stroke-opacity:1"
       d="m 129,397.25 19.75,0" /><g
       id="g5162"><text
         id="text5164"
         style="font-variant:normal;font-weight:bold;font-size:8.56099987px;font-family:Helvetica;-inkscape-font-specification:Helvetica-Bold;writing-mode:lr-tb;fill:#000000;fill-opacity:1;fill-rule:nonzero;stroke:none"
         transform="matrix(1,0,0,-1,152.196,376.685)"><tspan
           id="tspan5166"
           sodipodi:role="line"
           y="0"
           x="0 5.4999971 11.499991 17.249985 19.499987 26.999989 32.499985 37.749985 43.249981 45.749985 48.499977 55.499989 61.499992 67.750008 70.250008 76.250015">FSP Muon (GENIE)</tspan></text>
</g><path
       inkscape:connector-curvature="0"
       id="path5168"
       style="fill:none;stroke:#ff0000;stroke-width:2.25;stroke-linecap:butt;stroke-linejoin:miter;stroke-miterlimit:10;stroke-dasharray:1, 2;stroke-dashoffset:0;stroke-opacity:1"
       d="m 129,379 19.75,0" /></g></svg>