<?xml version="1.0" encoding="UTF-8" standalone="no"?>
<!-- Created with Inkscape (http://www.inkscape.org/) -->

<svg
   xmlns:dc="http://purl.org/dc/elements/1.1/"
   xmlns:cc="http://creativecommons.org/ns#"
   xmlns:rdf="http://www.w3.org/1999/02/22-rdf-syntax-ns#"
   xmlns:svg="http://www.w3.org/2000/svg"
   xmlns="http://www.w3.org/2000/svg"
   xmlns:sodipodi="http://sodipodi.sourceforge.net/DTD/sodipodi-0.dtd"
   xmlns:inkscape="http://www.inkscape.org/namespaces/inkscape"
   id="svg2"
   version="1.1"
   inkscape:version="0.91 r13725"
   xml:space="preserve"
   width="460.10168"
   height="343.46661"
   viewBox="0 0 460.10169 343.46661"
   sodipodi:docname="background_model.svg"><sodipodi:namedview
     pagecolor="#ffffff"
     bordercolor="#666666"
     borderopacity="1"
     objecttolerance="10"
     gridtolerance="10"
     guidetolerance="10"
     inkscape:pageopacity="0"
     inkscape:pageshadow="2"
     inkscape:window-width="1276"
     inkscape:window-height="755"
     id="namedview4"
     showgrid="false"
     inkscape:snap-object-midpoints="true"
     inkscape:snap-smooth-nodes="true"
     inkscape:snap-bbox="true"
     inkscape:snap-bbox-edge-midpoints="true"
     inkscape:snap-bbox-midpoints="true"
     inkscape:zoom="0.71663768"
     inkscape:cx="320.84766"
     inkscape:cy="269.06271"
     inkscape:window-x="4"
     inkscape:window-y="0"
     inkscape:window-maximized="1"
     inkscape:current-layer="g4618"
     inkscape:object-nodes="true"
     fit-margin-top="0"
     fit-margin-left="0"
     fit-margin-right="0"
     fit-margin-bottom="0" /><metadata
     id="metadata8"><rdf:RDF><cc:Work
         rdf:about=""><dc:format>image/svg+xml</dc:format><dc:type
           rdf:resource="http://purl.org/dc/dcmitype/StillImage" /><dc:title></dc:title></cc:Work></rdf:RDF></metadata><defs
     id="defs6"><marker
       inkscape:stockid="TriangleInM"
       orient="auto"
       refY="0"
       refX="0"
       id="TriangleInM"
       style="overflow:visible"
       inkscape:isstock="true"><path
         id="path4416"
         d="m 5.77,0 -8.65,5 0,-10 8.65,5 z"
         style="fill:#00ffff;fill-opacity:1;fill-rule:evenodd;stroke:#00ffff;stroke-width:1pt;stroke-opacity:1"
         transform="scale(-0.4,-0.4)"
         inkscape:connector-curvature="0" /></marker><marker
       inkscape:stockid="TriangleOutM"
       orient="auto"
       refY="0"
       refX="0"
       id="marker4754"
       style="overflow:visible"
       inkscape:isstock="true"><path
         id="path4756"
         d="m 5.77,0 -8.65,5 0,-10 8.65,5 z"
         style="fill:#000000;fill-opacity:1;fill-rule:evenodd;stroke:#000000;stroke-width:1pt;stroke-opacity:1"
         transform="scale(0.4,0.4)"
         inkscape:connector-curvature="0" /></marker><marker
       inkscape:isstock="true"
       style="overflow:visible"
       id="TriangleOutM"
       refX="0"
       refY="0"
       orient="auto"
       inkscape:stockid="TriangleOutM"><path
         transform="scale(0.4,0.4)"
         style="fill:#000000;fill-opacity:1;fill-rule:evenodd;stroke:#000000;stroke-width:1pt;stroke-opacity:1"
         d="m 5.77,0 -8.65,5 0,-10 8.65,5 z"
         id="path4395"
         inkscape:connector-curvature="0" /></marker><marker
       inkscape:isstock="true"
       style="overflow:visible"
       id="Arrow2Mend"
       refX="0"
       refY="0"
       orient="auto"
       inkscape:stockid="Arrow2Mend"><path
         transform="scale(-0.6,-0.6)"
         d="M 8.7185878,4.0337352 -2.2072895,0.01601326 8.7185884,-4.0017078 c -1.7454984,2.3720609 -1.7354408,5.6174519 -6e-7,8.035443 z"
         style="fill-rule:evenodd;stroke-width:0.625;stroke-linejoin:round"
         id="path4277"
         inkscape:connector-curvature="0" /></marker></defs><g
     transform="matrix(1.25,0,0,-1.25,-41.367187,338.46535)"
     inkscape:label="detection_scheme"
     inkscape:groupmode="layer"
     id="g10"><g
       id="g12"><path
         inkscape:connector-curvature="0"
         id="path14"
         style="fill:none;fill-opacity:1;fill-rule:nonzero;stroke:#800000;stroke-width:8;stroke-miterlimit:4;stroke-dasharray:none"
         d="m 274.305,110.253 c 0,-60.89 -49.36,-110.254 -110.25,-110.254 -60.891,0 -110.254,49.364 -110.254,110.254 0,60.891 49.363,110.25 110.254,110.25 60.89,0 110.25,-49.359 110.25,-110.25 z" /><path
         inkscape:connector-curvature="0"
         id="path16"
         style="fill:#999999;fill-opacity:1;fill-rule:nonzero;stroke:none"
         d="m 156.223,242.195 18.074,0 0,-23.496 -18.074,0 0,23.496 z" /><text
         id="text18"
         style="font-variant:normal;font-weight:normal;font-size:12.80000019px;font-family:'DejaVu Sans';-inkscape-font-specification:DejaVuSans;writing-mode:lr-tb;fill:#000000;fill-opacity:1;fill-rule:nonzero;stroke:none"
         transform="matrix(1,0,0,-1,135.1472,254.12126)"><tspan
           y="0"
           x="0"
           style="font-size:20px"
           id="tspan20"
           sodipodi:role="line" /></text>
<path
         inkscape:connector-curvature="0"
         id="path78"
         style="fill:#999999;fill-opacity:1;fill-rule:nonzero;stroke:none"
         d="m 156.148,242.054 c 0,5 4.055,9.055 9.059,9.055 5,0 9.055,-4.055 9.055,-9.055" /><flowRoot
         transform="matrix(0.8,0,0,-0.8,0,251.17294)"
         style="font-style:normal;font-weight:normal;font-size:12.5px;line-height:125%;font-family:sans-serif;letter-spacing:0px;word-spacing:0px;fill:#000000;fill-opacity:1;stroke:none;stroke-width:1px;stroke-linecap:butt;stroke-linejoin:miter;stroke-opacity:1"
         id="flowRoot4206"
         xml:space="preserve"><flowRegion
           id="flowRegion4208"><rect
             y="40.466751"
             x="39.071346"
             height="40.466751"
             width="107.44621"
             id="rect4210" /></flowRegion><flowPara
           style="font-style:normal;font-variant:normal;font-weight:bold;font-stretch:normal;font-size:25px;font-family:sans-serif;-inkscape-font-specification:'sans-serif Bold';fill:#800000"
           id="flowPara4212">Earth</flowPara></flowRoot><flowRoot
         transform="matrix(0.8,0,0,-0.8,-14.825664,264.40531)"
         style="font-style:normal;font-variant:normal;font-weight:bold;font-stretch:normal;font-size:12.5px;line-height:125%;font-family:sans-serif;-inkscape-font-specification:'sans-serif Bold';letter-spacing:0px;word-spacing:0px;fill:#999999;fill-opacity:1;stroke:none;stroke-width:1px;stroke-linecap:butt;stroke-linejoin:miter;stroke-opacity:1"
         id="flowRoot4214"
         xml:space="preserve"><flowRegion
           id="flowRegion4216"><rect
             style="font-style:normal;font-variant:normal;font-weight:bold;font-stretch:normal;font-family:sans-serif;-inkscape-font-specification:'sans-serif Bold';fill:#999999;fill-opacity:1"
             y="-14.651755"
             x="154.88998"
             height="57.211617"
             width="158.37849"
             id="rect4218" /></flowRegion><flowPara
           style="font-style:normal;font-variant:normal;font-weight:bold;font-stretch:normal;font-size:25px;font-family:sans-serif;-inkscape-font-specification:'sans-serif Bold';fill:#999999;fill-opacity:1"
           id="flowPara4220">KamLAND</flowPara></flowRoot><g
         id="g4592"><path
           d="m 182.129,207.55 c 0,-4.824 -3.914,-8.734 -8.738,-8.734 -4.825,0 -8.735,3.91 -8.735,8.734 0,4.824 3.91,8.738 8.735,8.738 4.824,0 8.738,-3.914 8.738,-8.738 z"
           style="fill:#00ffff;fill-opacity:1;fill-rule:nonzero;stroke:none"
           id="path24"
           inkscape:connector-curvature="0" /><g
           transform="matrix(1,0,0,-1,34.65888,291.8746)"
           id="g4600"><g
             style="font-style:normal;font-variant:normal;font-weight:normal;font-stretch:normal;letter-spacing:normal;word-spacing:normal;text-anchor:start;fill:none;fill-opacity:1;fill-rule:evenodd;stroke:#000000;stroke-linecap:butt;stroke-linejoin:miter;stroke-miterlimit:10.43299961;stroke-dasharray:none;stroke-dashoffset:0;stroke-opacity:1"
             id="content"
             transform="matrix(0.47045091,0,0,-0.47045091,-82.32891,280.59707)"
             xml:space="preserve"
             stroke-miterlimit="10.433"
             font-style="normal"
             font-variant="normal"
             font-weight="normal"
             font-stretch="normal"
             font-size-adjust="none"
             letter-spacing="normal"
             word-spacing="normal"><path
               style="fill:#000000;stroke-width:0"
               inkscape:connector-curvature="0"
               d="m 466.68,427.67 0,0 0,0 0,0.01 0,0.01 -0.01,0.01 0,0.02 0,0.02 0,0.01 0,0.02 -0.01,0.02 0,0.03 -0.01,0.02 -0.01,0.02 -0.01,0.03 -0.01,0.02 -0.01,0.02 -0.01,0.03 -0.02,0.02 -0.02,0.03 -0.02,0.02 -0.02,0.02 -0.01,0.02 -0.02,0.01 -0.01,0.01 -0.01,0.01 -0.02,0.01 -0.01,0.01 -0.02,0.01 -0.01,0.01 -0.02,0 -0.02,0.01 -0.02,0.01 -0.02,0.01 -0.02,0.01 -0.02,0 -0.02,0.01 -0.02,0 -0.03,0.01 -0.02,0 -0.03,0.01 -0.02,0 -0.03,0 -0.03,0 -0.03,0 -0.02,0 c -1.16,0 -4.79,-0.39 -6.08,-0.5 -0.41,-0.04 -0.96,-0.09 -0.96,-0.98 0,-0.61 0.46,-0.61 1.21,-0.61 2.39,0 2.48,-0.34 2.48,-0.84 0,-0.35 -0.59,-2.69 -0.94,-4.03 l -3.04,-12.21 c -0.21,-0.75 -0.55,-2.14 -0.55,-2.25 0,-0.54 0.5,-0.59 0.8,-0.59 l 0.7,0 c 3.48,0.59 8.91,2.55 14.05,7.33 6.58,6.12 7.92,12.9 7.92,13.34 0,0.84 -0.59,1.34 -1.45,1.34 -0.39,0 -1.55,-0.18 -1.94,-1.64 -3.19,-11.31 -10.77,-16.89 -16.44,-18.73 z"
               id="path4603" /></g></g></g><g
         id="g4658"
         transform="matrix(1,0,0,-1,-14.4,298.65251)"
         style="stroke-width:2.4000001;stroke-miterlimit:4;stroke-dasharray:none" /><g
         style="stroke-width:2.4000001;stroke-miterlimit:4;stroke-dasharray:none"
         transform="matrix(1,0,0,-1,0,263.45251)"
         id="g66" /><path
         style="fill:none;fill-rule:evenodd;stroke:#ff0000;stroke-width:2.4000001;stroke-linecap:butt;stroke-linejoin:miter;stroke-miterlimit:4;stroke-dasharray:none;stroke-opacity:1"
         d="M 209.95466,109.09286 239.21064,29.853663"
         id="path4230"
         inkscape:connector-curvature="0" /><path
         inkscape:connector-curvature="0"
         id="path4232"
         d="m 180.69868,188.33206 29.25598,-79.2392"
         style="fill:none;fill-rule:evenodd;stroke:#00ffff;stroke-width:2.4000001;stroke-linecap:butt;stroke-linejoin:miter;stroke-miterlimit:4;stroke-dasharray:none;stroke-opacity:1;marker-start:url(#TriangleInM)" /><g
         id="g4540"
         transform="translate(11.86066,-36.40265)"><g
           id="g70"
           transform="matrix(1,0,0,-1,0,263.45251)"
           style="stroke-width:2.4000001;stroke-miterlimit:4;stroke-dasharray:none"><path
             d="m 218.879,117.957 c 0,11.477 -9.305,20.785 -20.785,20.785 -11.481,0 -20.785,-9.308 -20.785,-20.785 0,-11.48 9.304,-20.785 20.785,-20.785 11.48,0 20.785,9.305 20.785,20.785 z"
             style="fill:#ffffff;fill-opacity:1;fill-rule:nonzero;stroke:#000000;stroke-width:2.4000001;stroke-linecap:butt;stroke-linejoin:miter;stroke-miterlimit:4;stroke-dasharray:none;stroke-opacity:1"
             id="path72"
             inkscape:connector-curvature="0" /></g><flowRoot
           xml:space="preserve"
           id="flowRoot4532"
           style="font-style:normal;font-variant:normal;font-weight:bold;font-stretch:normal;font-size:25px;line-height:125%;font-family:sans-serif;-inkscape-font-specification:'sans-serif Bold';letter-spacing:0px;word-spacing:0px;fill:#000000;fill-opacity:1;stroke:none;stroke-width:1px;stroke-linecap:butt;stroke-linejoin:miter;stroke-opacity:1"
           transform="matrix(0.8,0,0,-0.8,166.01978,266.29143)"><flowRegion
             id="flowRegion4534"><rect
               id="rect4536"
               width="25.815001"
               height="34.885132"
               x="32.792023"
               y="135.35431"
               style="font-style:normal;font-variant:normal;font-weight:bold;font-stretch:normal;font-size:25px;font-family:sans-serif;-inkscape-font-specification:'sans-serif Bold'" /></flowRegion><flowPara
             id="flowPara4538">?</flowPara></flowRoot></g><g
         id="g4608"
         transform="translate(0,-64)"><g
           id="g4618"
           transform="translate(72,-126.4)"><path
             d="m 182.129,207.55 c 0,-4.824 -3.914,-8.734 -8.738,-8.734 -4.825,0 -8.735,3.91 -8.735,8.734 0,4.824 3.91,8.738 8.735,8.738 4.824,0 8.738,-3.914 8.738,-8.738 z"
             style="fill:#ff0000;fill-opacity:1;fill-rule:nonzero;stroke:none"
             id="path4610"
             inkscape:connector-curvature="0" /><g
             transform="matrix(1,0,0,-1,34.65888,291.8746)"
             id="g4612"
             style="fill:#ffffff"><g
               style="font-style:normal;font-variant:normal;font-weight:normal;font-stretch:normal;letter-spacing:normal;word-spacing:normal;text-anchor:start;fill:#ffffff;fill-opacity:1;fill-rule:evenodd;stroke:#000000;stroke-linecap:butt;stroke-linejoin:miter;stroke-miterlimit:10.43299961;stroke-dasharray:none;stroke-dashoffset:0;stroke-opacity:1"
               id="g4614"
               transform="matrix(0.47045091,0,0,-0.47045091,-82.32891,280.59707)"
               xml:space="preserve"
               stroke-miterlimit="10.433"
               font-style="normal"
               font-variant="normal"
               font-weight="normal"
               font-stretch="normal"
               font-size-adjust="none"
               letter-spacing="normal"
               word-spacing="normal"><path
                 style="fill:#ffffff;stroke-width:0"
                 inkscape:connector-curvature="0"
                 d="m 466.68,427.67 0,0 0,0 0,0.01 0,0.01 -0.01,0.01 0,0.02 0,0.02 0,0.01 0,0.02 -0.01,0.02 0,0.03 -0.01,0.02 -0.01,0.02 -0.01,0.03 -0.01,0.02 -0.01,0.02 -0.01,0.03 -0.02,0.02 -0.02,0.03 -0.02,0.02 -0.02,0.02 -0.01,0.02 -0.02,0.01 -0.01,0.01 -0.01,0.01 -0.02,0.01 -0.01,0.01 -0.02,0.01 -0.01,0.01 -0.02,0 -0.02,0.01 -0.02,0.01 -0.02,0.01 -0.02,0.01 -0.02,0 -0.02,0.01 -0.02,0 -0.03,0.01 -0.02,0 -0.03,0.01 -0.02,0 -0.03,0 -0.03,0 -0.03,0 -0.02,0 c -1.16,0 -4.79,-0.39 -6.08,-0.5 -0.41,-0.04 -0.96,-0.09 -0.96,-0.98 0,-0.61 0.46,-0.61 1.21,-0.61 2.39,0 2.48,-0.34 2.48,-0.84 0,-0.35 -0.59,-2.69 -0.94,-4.03 l -3.04,-12.21 c -0.21,-0.75 -0.55,-2.14 -0.55,-2.25 0,-0.54 0.5,-0.59 0.8,-0.59 l 0.7,0 c 3.48,0.59 8.91,2.55 14.05,7.33 6.58,6.12 7.92,12.9 7.92,13.34 0,0.84 -0.59,1.34 -1.45,1.34 -0.39,0 -1.55,-0.18 -1.94,-1.64 -3.19,-11.31 -10.77,-16.89 -16.44,-18.73 z"
                 id="path4616" /></g></g><flowRoot
             xml:space="preserve"
             id="flowRoot4624"
             style="font-style:normal;font-weight:normal;font-size:12.5px;line-height:125%;font-family:sans-serif;letter-spacing:0px;word-spacing:0px;fill:#000000;fill-opacity:1;stroke:none;stroke-width:1px;stroke-linecap:butt;stroke-linejoin:miter;stroke-opacity:1"
             transform="matrix(0.8,0,0,-0.8,-138.01866,452.60437)"><flowRegion
               id="flowRegion4626"><rect
                 id="rect4628"
                 width="195.35674"
                 height="76.747292"
                 x="406.06293"
                 y="275.09177" /></flowRegion><flowPara
               id="flowPara4630"
               style="font-style:normal;font-variant:normal;font-weight:bold;font-stretch:normal;font-size:25px;font-family:sans-serif;-inkscape-font-specification:'sans-serif Bold';fill:#ff0000">Atmospheric neutrino</flowPara></flowRoot></g></g></g></g></svg>