<?xml version="1.0" encoding="UTF-8" standalone="no"?>
<!-- Created with Inkscape (http://www.inkscape.org/) -->

<svg
   xmlns:dc="http://purl.org/dc/elements/1.1/"
   xmlns:cc="http://creativecommons.org/ns#"
   xmlns:rdf="http://www.w3.org/1999/02/22-rdf-syntax-ns#"
   xmlns:svg="http://www.w3.org/2000/svg"
   xmlns="http://www.w3.org/2000/svg"
   xmlns:sodipodi="http://sodipodi.sourceforge.net/DTD/sodipodi-0.dtd"
   xmlns:inkscape="http://www.inkscape.org/namespaces/inkscape"
   id="svg2"
   version="1.1"
   inkscape:version="0.91 r13725"
   xml:space="preserve"
   width="708.75"
   height="680"
   viewBox="0 0 708.75 680"
   sodipodi:docname="emu_mtq_recon_ellipticity-3Mcut.svg"><metadata
     id="metadata8"><rdf:RDF><cc:Work
         rdf:about=""><dc:format>image/svg+xml</dc:format><dc:type
           rdf:resource="http://purl.org/dc/dcmitype/StillImage" /><dc:title></dc:title></cc:Work></rdf:RDF></metadata><defs
     id="defs6" /><sodipodi:namedview
     pagecolor="#ffffff"
     bordercolor="#666666"
     borderopacity="1"
     objecttolerance="10"
     gridtolerance="10"
     guidetolerance="10"
     inkscape:pageopacity="0"
     inkscape:pageshadow="2"
     inkscape:window-width="1276"
     inkscape:window-height="755"
     id="namedview4"
     showgrid="false"
     inkscape:zoom="0.69411765"
     inkscape:cx="378.97516"
     inkscape:cy="294.95878"
     inkscape:window-x="4"
     inkscape:window-y="0"
     inkscape:window-maximized="1"
     inkscape:current-layer="layer2" /><g
     id="g10"
     inkscape:groupmode="layer"
     inkscape:label="Layer 1"
     transform="matrix(1.25,0,0,-1.25,0,680)"
     style="display:inline"><g
       id="g12"
       transform="scale(0.1,0.1)"
       style="stroke-width:24;stroke-miterlimit:10;stroke-dasharray:none"><path
         d="m 850,815 3970,0 0,3810 -3970,0 0,-3810 z"
         style="fill:#ffffff;fill-opacity:1;fill-rule:evenodd;stroke:none;stroke-width:24;stroke-miterlimit:10;stroke-dasharray:none"
         id="path16"
         inkscape:connector-curvature="0" /><path
         d="m 850,815 3970,0 0,3810 -3970,0 0,-3810 z"
         style="fill:none;stroke:#000000;stroke-width:24;stroke-linecap:butt;stroke-linejoin:miter;stroke-miterlimit:10;stroke-dasharray:none;stroke-opacity:1"
         id="path18"
         inkscape:connector-curvature="0" /><path
         d="m 850,815 3970,0 0,3810 -3970,0 0,-3810 z"
         style="fill:#ffffff;fill-opacity:1;fill-rule:evenodd;stroke:none;stroke-width:24;stroke-miterlimit:10;stroke-dasharray:none"
         id="path20"
         inkscape:connector-curvature="0" /><path
         d="m 850,815 3970,0 0,3810 -3970,0 0,-3810 z"
         style="fill:none;stroke:#000000;stroke-width:24;stroke-linecap:butt;stroke-linejoin:miter;stroke-miterlimit:10;stroke-dasharray:none;stroke-opacity:1"
         id="path22"
         inkscape:connector-curvature="0" /><path
         d="m 850,815 3970,0"
         style="fill:none;stroke:#000000;stroke-width:24;stroke-linecap:butt;stroke-linejoin:miter;stroke-miterlimit:10;stroke-dasharray:none;stroke-opacity:1"
         id="path24"
         inkscape:connector-curvature="0" /><path
         d="m 850,815 3970,0"
         style="fill:none;stroke:#000000;stroke-width:24;stroke-linecap:butt;stroke-linejoin:miter;stroke-miterlimit:10;stroke-dasharray:none;stroke-opacity:1"
         id="path26"
         inkscape:connector-curvature="0" /><g
         id="g28"
         transform="scale(10,10)"
         style="stroke-width:2.4;stroke-miterlimit:10;stroke-dasharray:none"><text
           transform="matrix(1,0,0,-1,392.855,41.8539)"
           style="font-variant:normal;font-weight:bold;font-size:19.97570037999999926px;font-family:Helvetica;-inkscape-font-specification:Helvetica-Bold;writing-mode:lr-tb;fill:#000000;fill-opacity:1;fill-rule:nonzero;stroke:none;stroke-width:2.4;stroke-miterlimit:10;stroke-dasharray:none"
           id="text30"><tspan
             x="0 13.323792 18.877037 24.430281 29.983526 42.188679 48.840588 54.393829 65.50032 71.053566 77.705475"
             y="0"
             sodipodi:role="line"
             id="tspan32">Ellipticity</tspan></text>
</g><path
         d="m 850,930 0,-115"
         style="fill:none;stroke:#000000;stroke-width:24;stroke-linecap:butt;stroke-linejoin:miter;stroke-miterlimit:10;stroke-dasharray:none;stroke-opacity:1"
         id="path34"
         inkscape:connector-curvature="0" /><path
         d="m 1210,872.5 0,-57.5"
         style="fill:none;stroke:#000000;stroke-width:24;stroke-linecap:butt;stroke-linejoin:miter;stroke-miterlimit:10;stroke-dasharray:none;stroke-opacity:1"
         id="path36"
         inkscape:connector-curvature="0" /><path
         d="m 1572.5,872.5 0,-57.5"
         style="fill:none;stroke:#000000;stroke-width:24;stroke-linecap:butt;stroke-linejoin:miter;stroke-miterlimit:10;stroke-dasharray:none;stroke-opacity:1"
         id="path38"
         inkscape:connector-curvature="0" /><path
         d="m 1932.5,872.5 0,-57.5"
         style="fill:none;stroke:#000000;stroke-width:24;stroke-linecap:butt;stroke-linejoin:miter;stroke-miterlimit:10;stroke-dasharray:none;stroke-opacity:1"
         id="path40"
         inkscape:connector-curvature="0" /><path
         d="m 2292.5,872.5 0,-57.5"
         style="fill:none;stroke:#000000;stroke-width:24;stroke-linecap:butt;stroke-linejoin:miter;stroke-miterlimit:10;stroke-dasharray:none;stroke-opacity:1"
         id="path42"
         inkscape:connector-curvature="0" /><path
         d="m 2655,930 0,-115"
         style="fill:none;stroke:#000000;stroke-width:24;stroke-linecap:butt;stroke-linejoin:miter;stroke-miterlimit:10;stroke-dasharray:none;stroke-opacity:1"
         id="path44"
         inkscape:connector-curvature="0" /><path
         d="m 3015,872.5 0,-57.5"
         style="fill:none;stroke:#000000;stroke-width:24;stroke-linecap:butt;stroke-linejoin:miter;stroke-miterlimit:10;stroke-dasharray:none;stroke-opacity:1"
         id="path46"
         inkscape:connector-curvature="0" /><path
         d="m 3375,872.5 0,-57.5"
         style="fill:none;stroke:#000000;stroke-width:24;stroke-linecap:butt;stroke-linejoin:miter;stroke-miterlimit:10;stroke-dasharray:none;stroke-opacity:1"
         id="path48"
         inkscape:connector-curvature="0" /><path
         d="m 3737.5,872.5 0,-57.5"
         style="fill:none;stroke:#000000;stroke-width:24;stroke-linecap:butt;stroke-linejoin:miter;stroke-miterlimit:10;stroke-dasharray:none;stroke-opacity:1"
         id="path50"
         inkscape:connector-curvature="0" /><path
         d="m 4097.5,872.5 0,-57.5"
         style="fill:none;stroke:#000000;stroke-width:24;stroke-linecap:butt;stroke-linejoin:miter;stroke-miterlimit:10;stroke-dasharray:none;stroke-opacity:1"
         id="path52"
         inkscape:connector-curvature="0" /><path
         d="m 4457.5,930 0,-115"
         style="fill:none;stroke:#000000;stroke-width:24;stroke-linecap:butt;stroke-linejoin:miter;stroke-miterlimit:10;stroke-dasharray:none;stroke-opacity:1"
         id="path54"
         inkscape:connector-curvature="0" /><path
         d="m 4457.5,930 0,-115"
         style="fill:none;stroke:#000000;stroke-width:24;stroke-linecap:butt;stroke-linejoin:miter;stroke-miterlimit:10;stroke-dasharray:none;stroke-opacity:1"
         id="path56"
         inkscape:connector-curvature="0" /><path
         d="m 4820,872.5 0,-57.5"
         style="fill:none;stroke:#000000;stroke-width:24;stroke-linecap:butt;stroke-linejoin:miter;stroke-miterlimit:10;stroke-dasharray:none;stroke-opacity:1"
         id="path58"
         inkscape:connector-curvature="0" /><g
         id="g60"
         transform="scale(10,10)"
         style="stroke-width:2.4;stroke-miterlimit:10;stroke-dasharray:none"><text
           transform="matrix(1,0,0,-1,70.3906,61.8297)"
           style="font-variant:normal;font-weight:bold;font-size:19.97570037999999926px;font-family:Helvetica;-inkscape-font-specification:Helvetica-Bold;writing-mode:lr-tb;fill:#000000;fill-opacity:1;fill-rule:nonzero;stroke:none;stroke-width:2.4;stroke-miterlimit:10;stroke-dasharray:none"
           id="text62"><tspan
             x="0 6.6519079 17.758398 185.48935 192.14127 369.07404"
             y="0"
             sodipodi:role="line"
             id="tspan64">-10-50</tspan></text>
</g><path
         d="m 850,815 0,3810"
         style="fill:none;stroke:#000000;stroke-width:24;stroke-linecap:butt;stroke-linejoin:miter;stroke-miterlimit:10;stroke-dasharray:none;stroke-opacity:1"
         id="path66"
         inkscape:connector-curvature="0" /><path
         d="m 970,815 -120,0"
         style="fill:none;stroke:#000000;stroke-width:24;stroke-linecap:butt;stroke-linejoin:miter;stroke-miterlimit:10;stroke-dasharray:none;stroke-opacity:1"
         id="path68"
         inkscape:connector-curvature="0" /><path
         d="m 910,1075 -60,0"
         style="fill:none;stroke:#000000;stroke-width:24;stroke-linecap:butt;stroke-linejoin:miter;stroke-miterlimit:10;stroke-dasharray:none;stroke-opacity:1"
         id="path70"
         inkscape:connector-curvature="0" /><path
         d="m 910,1335 -60,0"
         style="fill:none;stroke:#000000;stroke-width:24;stroke-linecap:butt;stroke-linejoin:miter;stroke-miterlimit:10;stroke-dasharray:none;stroke-opacity:1"
         id="path72"
         inkscape:connector-curvature="0" /><path
         d="m 910,1592.5 -60,0"
         style="fill:none;stroke:#000000;stroke-width:24;stroke-linecap:butt;stroke-linejoin:miter;stroke-miterlimit:10;stroke-dasharray:none;stroke-opacity:1"
         id="path74"
         inkscape:connector-curvature="0" /><path
         d="m 910,1852.5 -60,0"
         style="fill:none;stroke:#000000;stroke-width:24;stroke-linecap:butt;stroke-linejoin:miter;stroke-miterlimit:10;stroke-dasharray:none;stroke-opacity:1"
         id="path76"
         inkscape:connector-curvature="0" /><path
         d="m 970,2112.5 -120,0"
         style="fill:none;stroke:#000000;stroke-width:24;stroke-linecap:butt;stroke-linejoin:miter;stroke-miterlimit:10;stroke-dasharray:none;stroke-opacity:1"
         id="path78"
         inkscape:connector-curvature="0" /><path
         d="m 910,2370 -60,0"
         style="fill:none;stroke:#000000;stroke-width:24;stroke-linecap:butt;stroke-linejoin:miter;stroke-miterlimit:10;stroke-dasharray:none;stroke-opacity:1"
         id="path80"
         inkscape:connector-curvature="0" /><path
         d="m 910,2630 -60,0"
         style="fill:none;stroke:#000000;stroke-width:24;stroke-linecap:butt;stroke-linejoin:miter;stroke-miterlimit:10;stroke-dasharray:none;stroke-opacity:1"
         id="path82"
         inkscape:connector-curvature="0" /><path
         d="m 910,2890 -60,0"
         style="fill:none;stroke:#000000;stroke-width:24;stroke-linecap:butt;stroke-linejoin:miter;stroke-miterlimit:10;stroke-dasharray:none;stroke-opacity:1"
         id="path84"
         inkscape:connector-curvature="0" /><path
         d="m 910,3147.5 -60,0"
         style="fill:none;stroke:#000000;stroke-width:24;stroke-linecap:butt;stroke-linejoin:miter;stroke-miterlimit:10;stroke-dasharray:none;stroke-opacity:1"
         id="path86"
         inkscape:connector-curvature="0" /><path
         d="m 970,3407.5 -120,0"
         style="fill:none;stroke:#000000;stroke-width:24;stroke-linecap:butt;stroke-linejoin:miter;stroke-miterlimit:10;stroke-dasharray:none;stroke-opacity:1"
         id="path88"
         inkscape:connector-curvature="0" /><path
         d="m 970,3407.5 -120,0"
         style="fill:none;stroke:#000000;stroke-width:24;stroke-linecap:butt;stroke-linejoin:miter;stroke-miterlimit:10;stroke-dasharray:none;stroke-opacity:1"
         id="path90"
         inkscape:connector-curvature="0" /><path
         d="m 910,3665 -60,0"
         style="fill:none;stroke:#000000;stroke-width:24;stroke-linecap:butt;stroke-linejoin:miter;stroke-miterlimit:10;stroke-dasharray:none;stroke-opacity:1"
         id="path92"
         inkscape:connector-curvature="0" /><path
         d="m 910,3925 -60,0"
         style="fill:none;stroke:#000000;stroke-width:24;stroke-linecap:butt;stroke-linejoin:miter;stroke-miterlimit:10;stroke-dasharray:none;stroke-opacity:1"
         id="path94"
         inkscape:connector-curvature="0" /><path
         d="m 910,4185 -60,0"
         style="fill:none;stroke:#000000;stroke-width:24;stroke-linecap:butt;stroke-linejoin:miter;stroke-miterlimit:10;stroke-dasharray:none;stroke-opacity:1"
         id="path96"
         inkscape:connector-curvature="0" /><path
         d="m 910,4442.5 -60,0"
         style="fill:none;stroke:#000000;stroke-width:24;stroke-linecap:butt;stroke-linejoin:miter;stroke-miterlimit:10;stroke-dasharray:none;stroke-opacity:1"
         id="path98"
         inkscape:connector-curvature="0" /><g
         id="g100"
         transform="scale(10,10)"
         style="stroke-width:2.4;stroke-miterlimit:10;stroke-dasharray:none"><text
           transform="matrix(1,0,0,-1,71.3418,74.1953)"
           style="font-variant:normal;font-weight:bold;font-size:19.97570037999999926px;font-family:Helvetica;-inkscape-font-specification:Helvetica-Bold;writing-mode:lr-tb;fill:#000000;fill-opacity:1;fill-rule:nonzero;stroke:none;stroke-width:2.4;stroke-miterlimit:10;stroke-dasharray:none"
           id="text102"><tspan
             x="0"
             y="0"
             id="tspan104"
             style="stroke-width:2.4;stroke-miterlimit:10;stroke-dasharray:none">0</tspan><tspan
             x="-11.4148 -0.30831081"
             y="-129.366"
             sodipodi:role="line"
             id="tspan106">10</tspan><tspan
             x="-11.4148 -0.30831081"
             y="-259.68399"
             sodipodi:role="line"
             id="tspan108">20</tspan></text>
</g><path
         d="m 850,815 2142.5,0 0,130 40,0 0,-130 80,0 0,130 40,0 0,-130 117.5,0 0,130 40,0 0,-130 80,0 0,130 40,0 0,-130 80,0 0,130 40,0 0,130 37.5,0 0,-130 40,0 0,390 80,0 0,-390 80,0 0,260 40,0 0,130 40,0 0,647.5 37.5,0 0,-517.5 40,0 0,905 40,0 0,-647.5 40,0 0,517.5 40,0 0,130 40,0 0,390 40,0 0,257.5 40,0 0,-257.5 37.5,0 0,1682.5 40,0 0,-1295 40,0 0,907.5 40,0 0,-1685 80,0 0,260 40,0 0,-1685 40,0 0,-130 317.5,0"
         style="fill:none;stroke:#ff0000;stroke-width:24;stroke-linecap:butt;stroke-linejoin:miter;stroke-miterlimit:10;stroke-dasharray:none;stroke-opacity:1"
         id="path110"
         inkscape:connector-curvature="0" /><path
         d="m 850,815 1270,0 0,130 40,0 0,-130 80,0 0,130 117.5,0 0,130 40,0 0,-260 40,0 0,130 40,0 0,520 40,0 0,-260 40,0 0,-260 40,0 0,260 37.5,0 0,517.5 40,0 0,-387.5 40,0 0,647.5 40,0 0,-260 80,0 0,260 40,0 0,-390 40,0 0,130 37.5,0 0,390 40,0 0,257.5 80,0 0,-1295 40,0 0,260 40,0 0,517.5 40,0 0,-387.5 117.5,0 0,257.5 40,0 0,-387.5 40,0 0,-130 40,0 0,517.5 40,0 0,-387.5 40,0 0,-130 40,0 0,-390 37.5,0 0,390 80,0 0,260 80,0 0,387.5 40,0 0,-647.5 80,0 0,-390 37.5,0 0,130 80,0 0,-130 120,0 0,520 40,0 0,-130 40,0 0,-130 37.5,0 0,-260 80,0 0,260 40,0 0,260 40,0 0,-520 40,0 0,130 40,0 0,-130 357.5,0"
         style="fill:none;stroke:#0000ff;stroke-width:24;stroke-linecap:butt;stroke-linejoin:miter;stroke-miterlimit:10;stroke-dasharray:none;stroke-opacity:1"
         id="path140"
         inkscape:connector-curvature="0" /><path
         d="m 850,815 3970,0"
         style="fill:none;stroke:#000000;stroke-width:24;stroke-linecap:butt;stroke-linejoin:miter;stroke-miterlimit:10;stroke-dasharray:none;stroke-opacity:1"
         id="path172"
         inkscape:connector-curvature="0" /><path
         d="m 850,930 0,-115"
         style="fill:none;stroke:#000000;stroke-width:24;stroke-linecap:butt;stroke-linejoin:miter;stroke-miterlimit:10;stroke-dasharray:none;stroke-opacity:1"
         id="path174"
         inkscape:connector-curvature="0" /><path
         d="m 1210,872.5 0,-57.5"
         style="fill:none;stroke:#000000;stroke-width:24;stroke-linecap:butt;stroke-linejoin:miter;stroke-miterlimit:10;stroke-dasharray:none;stroke-opacity:1"
         id="path176"
         inkscape:connector-curvature="0" /><path
         d="m 1572.5,872.5 0,-57.5"
         style="fill:none;stroke:#000000;stroke-width:24;stroke-linecap:butt;stroke-linejoin:miter;stroke-miterlimit:10;stroke-dasharray:none;stroke-opacity:1"
         id="path178"
         inkscape:connector-curvature="0" /><path
         d="m 1932.5,872.5 0,-57.5"
         style="fill:none;stroke:#000000;stroke-width:24;stroke-linecap:butt;stroke-linejoin:miter;stroke-miterlimit:10;stroke-dasharray:none;stroke-opacity:1"
         id="path180"
         inkscape:connector-curvature="0" /><path
         d="m 2292.5,872.5 0,-57.5"
         style="fill:none;stroke:#000000;stroke-width:24;stroke-linecap:butt;stroke-linejoin:miter;stroke-miterlimit:10;stroke-dasharray:none;stroke-opacity:1"
         id="path182"
         inkscape:connector-curvature="0" /><path
         d="m 2655,930 0,-115"
         style="fill:none;stroke:#000000;stroke-width:24;stroke-linecap:butt;stroke-linejoin:miter;stroke-miterlimit:10;stroke-dasharray:none;stroke-opacity:1"
         id="path184"
         inkscape:connector-curvature="0" /><path
         d="m 3015,872.5 0,-57.5"
         style="fill:none;stroke:#000000;stroke-width:24;stroke-linecap:butt;stroke-linejoin:miter;stroke-miterlimit:10;stroke-dasharray:none;stroke-opacity:1"
         id="path186"
         inkscape:connector-curvature="0" /><path
         d="m 3375,872.5 0,-57.5"
         style="fill:none;stroke:#000000;stroke-width:24;stroke-linecap:butt;stroke-linejoin:miter;stroke-miterlimit:10;stroke-dasharray:none;stroke-opacity:1"
         id="path188"
         inkscape:connector-curvature="0" /><path
         d="m 3737.5,872.5 0,-57.5"
         style="fill:none;stroke:#000000;stroke-width:24;stroke-linecap:butt;stroke-linejoin:miter;stroke-miterlimit:10;stroke-dasharray:none;stroke-opacity:1"
         id="path190"
         inkscape:connector-curvature="0" /><path
         d="m 4097.5,872.5 0,-57.5"
         style="fill:none;stroke:#000000;stroke-width:24;stroke-linecap:butt;stroke-linejoin:miter;stroke-miterlimit:10;stroke-dasharray:none;stroke-opacity:1"
         id="path192"
         inkscape:connector-curvature="0" /><path
         d="m 4457.5,930 0,-115"
         style="fill:none;stroke:#000000;stroke-width:24;stroke-linecap:butt;stroke-linejoin:miter;stroke-miterlimit:10;stroke-dasharray:none;stroke-opacity:1"
         id="path194"
         inkscape:connector-curvature="0" /><path
         d="m 4457.5,930 0,-115"
         style="fill:none;stroke:#000000;stroke-width:24;stroke-linecap:butt;stroke-linejoin:miter;stroke-miterlimit:10;stroke-dasharray:none;stroke-opacity:1"
         id="path196"
         inkscape:connector-curvature="0" /><path
         d="m 4820,872.5 0,-57.5"
         style="fill:none;stroke:#000000;stroke-width:24;stroke-linecap:butt;stroke-linejoin:miter;stroke-miterlimit:10;stroke-dasharray:none;stroke-opacity:1"
         id="path198"
         inkscape:connector-curvature="0" /><path
         d="m 850,815 0,3810"
         style="fill:none;stroke:#000000;stroke-width:24;stroke-linecap:butt;stroke-linejoin:miter;stroke-miterlimit:10;stroke-dasharray:none;stroke-opacity:1"
         id="path200"
         inkscape:connector-curvature="0" /><path
         d="m 970,815 -120,0"
         style="fill:none;stroke:#000000;stroke-width:24;stroke-linecap:butt;stroke-linejoin:miter;stroke-miterlimit:10;stroke-dasharray:none;stroke-opacity:1"
         id="path202"
         inkscape:connector-curvature="0" /><path
         d="m 910,1075 -60,0"
         style="fill:none;stroke:#000000;stroke-width:24;stroke-linecap:butt;stroke-linejoin:miter;stroke-miterlimit:10;stroke-dasharray:none;stroke-opacity:1"
         id="path204"
         inkscape:connector-curvature="0" /><path
         d="m 910,1335 -60,0"
         style="fill:none;stroke:#000000;stroke-width:24;stroke-linecap:butt;stroke-linejoin:miter;stroke-miterlimit:10;stroke-dasharray:none;stroke-opacity:1"
         id="path206"
         inkscape:connector-curvature="0" /><path
         d="m 910,1592.5 -60,0"
         style="fill:none;stroke:#000000;stroke-width:24;stroke-linecap:butt;stroke-linejoin:miter;stroke-miterlimit:10;stroke-dasharray:none;stroke-opacity:1"
         id="path208"
         inkscape:connector-curvature="0" /><path
         d="m 910,1852.5 -60,0"
         style="fill:none;stroke:#000000;stroke-width:24;stroke-linecap:butt;stroke-linejoin:miter;stroke-miterlimit:10;stroke-dasharray:none;stroke-opacity:1"
         id="path210"
         inkscape:connector-curvature="0" /><path
         d="m 970,2112.5 -120,0"
         style="fill:none;stroke:#000000;stroke-width:24;stroke-linecap:butt;stroke-linejoin:miter;stroke-miterlimit:10;stroke-dasharray:none;stroke-opacity:1"
         id="path212"
         inkscape:connector-curvature="0" /><path
         d="m 910,2370 -60,0"
         style="fill:none;stroke:#000000;stroke-width:24;stroke-linecap:butt;stroke-linejoin:miter;stroke-miterlimit:10;stroke-dasharray:none;stroke-opacity:1"
         id="path214"
         inkscape:connector-curvature="0" /><path
         d="m 910,2630 -60,0"
         style="fill:none;stroke:#000000;stroke-width:24;stroke-linecap:butt;stroke-linejoin:miter;stroke-miterlimit:10;stroke-dasharray:none;stroke-opacity:1"
         id="path216"
         inkscape:connector-curvature="0" /><path
         d="m 910,2890 -60,0"
         style="fill:none;stroke:#000000;stroke-width:24;stroke-linecap:butt;stroke-linejoin:miter;stroke-miterlimit:10;stroke-dasharray:none;stroke-opacity:1"
         id="path218"
         inkscape:connector-curvature="0" /><path
         d="m 910,3147.5 -60,0"
         style="fill:none;stroke:#000000;stroke-width:24;stroke-linecap:butt;stroke-linejoin:miter;stroke-miterlimit:10;stroke-dasharray:none;stroke-opacity:1"
         id="path220"
         inkscape:connector-curvature="0" /><path
         d="m 970,3407.5 -120,0"
         style="fill:none;stroke:#000000;stroke-width:24;stroke-linecap:butt;stroke-linejoin:miter;stroke-miterlimit:10;stroke-dasharray:none;stroke-opacity:1"
         id="path222"
         inkscape:connector-curvature="0" /><path
         d="m 970,3407.5 -120,0"
         style="fill:none;stroke:#000000;stroke-width:24;stroke-linecap:butt;stroke-linejoin:miter;stroke-miterlimit:10;stroke-dasharray:none;stroke-opacity:1"
         id="path224"
         inkscape:connector-curvature="0" /><path
         d="m 910,3665 -60,0"
         style="fill:none;stroke:#000000;stroke-width:24;stroke-linecap:butt;stroke-linejoin:miter;stroke-miterlimit:10;stroke-dasharray:none;stroke-opacity:1"
         id="path226"
         inkscape:connector-curvature="0" /><path
         d="m 910,3925 -60,0"
         style="fill:none;stroke:#000000;stroke-width:24;stroke-linecap:butt;stroke-linejoin:miter;stroke-miterlimit:10;stroke-dasharray:none;stroke-opacity:1"
         id="path228"
         inkscape:connector-curvature="0" /><path
         d="m 910,4185 -60,0"
         style="fill:none;stroke:#000000;stroke-width:24;stroke-linecap:butt;stroke-linejoin:miter;stroke-miterlimit:10;stroke-dasharray:none;stroke-opacity:1"
         id="path230"
         inkscape:connector-curvature="0" /><path
         d="m 910,4442.5 -60,0"
         style="fill:none;stroke:#000000;stroke-width:24;stroke-linecap:butt;stroke-linejoin:miter;stroke-miterlimit:10;stroke-dasharray:none;stroke-opacity:1"
         id="path232"
         inkscape:connector-curvature="0" /></g></g><g
     inkscape:groupmode="layer"
     id="layer2"
     inkscape:label="Layer 2"
     style="display:inline"><g
       id="g4426"
       transform="translate(60,60)"
       style="stroke-width:3;stroke-miterlimit:10;stroke-dasharray:none"><path
         inkscape:connector-curvature="0"
         id="path112"
         style="display:inline;fill:#ffffff;fill-opacity:1;fill-rule:evenodd;stroke:none;stroke-width:24;stroke-miterlimit:10;stroke-dasharray:none"
         d="m 567.5,3807.5 1132.5,0 0,1090 -1132.5,0 0,-1090 z"
         transform="matrix(0.125,0,0,-0.125,0,680)" /><path
         inkscape:connector-curvature="0"
         id="path142"
         style="display:inline;fill:#ffffff;fill-opacity:1;fill-rule:evenodd;stroke:none;stroke-width:24;stroke-miterlimit:10;stroke-dasharray:none"
         d="m 1700,3807.5 1135,0 0,1090 -1135,0 0,-1090 z"
         transform="matrix(0.125,0,0,-0.125,0,680)" /><path
         inkscape:connector-curvature="0"
         id="path114"
         style="display:inline;fill:none;stroke:#000000;stroke-width:24;stroke-linecap:butt;stroke-linejoin:miter;stroke-miterlimit:10;stroke-dasharray:none;stroke-opacity:1"
         d="m 567.5,3807.5 1132.5,0"
         transform="matrix(0.125,0,0,-0.125,0,680)" /><path
         inkscape:connector-curvature="0"
         id="path118"
         style="display:inline;fill:none;stroke:#000000;stroke-width:24;stroke-linecap:butt;stroke-linejoin:miter;stroke-miterlimit:10;stroke-dasharray:none;stroke-opacity:1"
         d="m 1700,4897.5 -1132.5,0"
         transform="matrix(0.125,0,0,-0.125,0,680)" /><path
         inkscape:connector-curvature="0"
         id="path120"
         style="display:inline;fill:none;stroke:#000000;stroke-width:24;stroke-linecap:butt;stroke-linejoin:miter;stroke-miterlimit:10;stroke-dasharray:none;stroke-opacity:1"
         d="m 567.5,4897.5 0,-1090"
         transform="matrix(0.125,0,0,-0.125,0,680)" /><g
         transform="matrix(1.25,0,0,-1.25,0,680)"
         id="g122"
         style="display:inline;stroke-width:2.4;stroke-miterlimit:10;stroke-dasharray:none"><text
           id="text124"
           style="font-variant:normal;font-weight:bold;font-size:23.78059959000000134px;font-family:Helvetica;-inkscape-font-specification:Helvetica-Bold;writing-mode:lr-tb;fill:#ff0000;fill-opacity:1;fill-rule:nonzero;stroke:none;stroke-width:2.4;stroke-miterlimit:10;stroke-dasharray:none"
           transform="matrix(1,0,0,-1,99.8785,468.953)"><tspan
             id="tspan126"
             sodipodi:role="line"
             y="0"
             x="0 13.222013">e+</tspan></text>
</g><path
         inkscape:connector-curvature="0"
         id="path128"
         style="display:inline;fill:none;stroke:#000000;stroke-width:24;stroke-linecap:butt;stroke-linejoin:miter;stroke-miterlimit:10;stroke-dasharray:none;stroke-opacity:1"
         d="m 567.5,4625 1132.5,0"
         transform="matrix(0.125,0,0,-0.125,0,680)" /><g
         transform="matrix(1.25,0,0,-1.25,0,680)"
         id="g130"
         style="display:inline;stroke-width:2.4;stroke-miterlimit:10;stroke-dasharray:none"><text
           id="text132"
           style="font-variant:normal;font-weight:bold;font-size:14.26840018999999948px;font-family:Helvetica;-inkscape-font-specification:Helvetica-Bold;writing-mode:lr-tb;fill:#ff0000;fill-opacity:1;fill-rule:nonzero;stroke:none;stroke-width:2.4;stroke-miterlimit:10;stroke-dasharray:none"
           transform="matrix(1,0,0,-1,61.8297,443.27)"><tspan
             id="tspan134"
             sodipodi:role="line"
             y="0"
             x="0 9.5170231 18.235016 22.986393 28.5368 32.503414 40.436646 48.369877 78.162155 86.095383 94.02861">Entries 238</tspan><tspan
             id="tspan136"
             sodipodi:role="line"
             y="26.6348"
             x="0 11.885577 19.818808 27.752037 36.470032 53.43045 58.181828 66.115059 70.081673 78.0149 85.948135 93.881363">Mean -0.8755</tspan><tspan
             id="tspan138"
             sodipodi:role="line"
             y="54.220001"
             x="0 10.301785 22.187363 31.704384 58.186337 66.119568 70.086182 78.019409 85.952644 93.885872">RMS 0.6605</tspan></text>
</g><path
         inkscape:connector-curvature="0"
         id="path144"
         style="display:inline;fill:none;stroke:#000000;stroke-width:24;stroke-linecap:butt;stroke-linejoin:miter;stroke-miterlimit:10;stroke-dasharray:none;stroke-opacity:1"
         d="m 1700,3807.5 1135,0"
         transform="matrix(0.125,0,0,-0.125,0,680)" /><path
         inkscape:connector-curvature="0"
         id="path146"
         style="display:inline;fill:none;stroke:#000000;stroke-width:24;stroke-linecap:butt;stroke-linejoin:miter;stroke-miterlimit:10;stroke-dasharray:none;stroke-opacity:1"
         d="m 2835,3807.5 0,1090"
         transform="matrix(0.125,0,0,-0.125,0,680)" /><path
         inkscape:connector-curvature="0"
         id="path148"
         style="display:inline;fill:none;stroke:#000000;stroke-width:24;stroke-linecap:butt;stroke-linejoin:miter;stroke-miterlimit:10;stroke-dasharray:none;stroke-opacity:1"
         d="m 2835,4897.5 -1135,0"
         transform="matrix(0.125,0,0,-0.125,0,680)" /><path
         inkscape:connector-curvature="0"
         id="path150"
         style="display:inline;fill:none;stroke:#000000;stroke-width:24;stroke-linecap:butt;stroke-linejoin:miter;stroke-miterlimit:10;stroke-dasharray:none;stroke-opacity:1"
         d="m 1700,4897.5 0,-1090"
         transform="matrix(0.125,0,0,-0.125,0,680)" /><g
         transform="matrix(1.25,0,0,-1.25,0,680)"
         id="g152"
         style="display:inline;stroke:none;fill:#0000ff;stroke-width:2.4;stroke-miterlimit:10;stroke-dasharray:none"><text
           id="text154"
           style="font-variant:normal;font-weight:bold;font-size:23.78059959000000134px;font-family:Helvetica;-inkscape-font-specification:Helvetica-Bold;writing-mode:lr-tb;fill:#0000ff;fill-opacity:1;fill-rule:nonzero;stroke:none;stroke-width:2.4;stroke-miterlimit:10;stroke-dasharray:none"
           transform="matrix(1,0,0,-1,204.513,469.905)"><tspan
             id="tspan156"
             sodipodi:role="line"
             y="0"
             x="0 21.140953 35.670898">mu-</tspan></text>
</g><path
         inkscape:connector-curvature="0"
         id="path158"
         style="display:inline;fill:none;stroke:#000000;stroke-width:24;stroke-linecap:butt;stroke-linejoin:miter;stroke-miterlimit:10;stroke-dasharray:none;stroke-opacity:1"
         d="m 1700,4625 1135,0"
         transform="matrix(0.125,0,0,-0.125,0,680)" /><g
         transform="matrix(1.25,0,0,-1.25,0,680)"
         id="g160"
         style="display:inline;stroke-width:2.4;stroke-miterlimit:10;stroke-dasharray:none"><text
           id="text162"
           style="font-variant:normal;font-weight:bold;font-size:15.21959971999999972px;font-family:Helvetica;-inkscape-font-specification:Helvetica-Bold;writing-mode:lr-tb;fill:#0000ff;fill-opacity:1;fill-rule:nonzero;stroke:none;stroke-width:2.4;stroke-miterlimit:10;stroke-dasharray:none"
           transform="matrix(1,0,0,-1,175.025,443.27)"><tspan
             id="tspan164"
             sodipodi:role="line"
             y="0"
             x="0 10.151473 19.450649 24.518776 30.439199 34.67025 43.132347 51.594444">Entries </tspan><tspan
             id="tspan166"
             sodipodi:role="line"
             y="0.94999999"
             x="77.475151 85.937248 94.399345">214</tspan><tspan
             id="tspan168"
             sodipodi:role="line"
             y="26.6348"
             x="0 12.677927 21.140024 29.602121 38.901299 68.389534 73.457657 81.919754 86.150803 94.6129">Mean -3.52</tspan><tspan
             id="tspan170"
             sodipodi:role="line"
             y="54.220001"
             x="0 10.988551 23.666477 33.817951 64.58445 73.046547 77.277596 85.739693 94.20179">RMS 1.343</tspan></text>
</g><path
         inkscape:connector-curvature="0"
         id="path116"
         style="display:inline;fill:none;stroke:#000000;stroke-width:24;stroke-linecap:butt;stroke-linejoin:miter;stroke-miterlimit:10;stroke-dasharray:none;stroke-opacity:1"
         d="m 1700,3807.5 0,1090"
         transform="matrix(0.125,0,0,-0.125,0,680)" /></g></g></svg>